<svg xmlns="http://www.w3.org/2000/svg" width="767" height="767" fill="none"><g fill="#fff" opacity=".3"><path d="M4.171 0A4.173 4.173 0 0 0 0 4.171a4.173 4.173 0 0 0 4.171 4.171 4.173 4.173 0 0 0 4.171-4.17A4.173 4.173 0 0 0 4.172 0M4.171 75.867A4.173 4.173 0 0 0 0 80.037a4.173 4.173 0 0 0 4.171 4.172 4.173 4.173 0 0 0 4.171-4.171 4.173 4.173 0 0 0-4.17-4.171M4.171 151.733A4.173 4.173 0 0 0 0 155.904a4.173 4.173 0 0 0 4.171 4.171 4.173 4.173 0 0 0 4.171-4.171 4.173 4.173 0 0 0-4.17-4.171M80.038 8.342a4.171 4.171 0 1 0 0-8.342 4.171 4.171 0 0 0 0 8.342M80.038 75.867a4.173 4.173 0 0 0-4.171 4.17 4.173 4.173 0 0 0 4.17 4.172 4.173 4.173 0 0 0 4.172-4.171 4.173 4.173 0 0 0-4.171-4.171M80.038 151.733a4.173 4.173 0 0 0-4.171 4.171 4.173 4.173 0 0 0 4.17 4.171 4.173 4.173 0 0 0 4.172-4.171 4.173 4.173 0 0 0-4.171-4.171M155.904 8.342a4.17 4.17 0 1 0 0-8.341 4.17 4.17 0 0 0 0 8.341M231.771 8.342a4.17 4.17 0 1 0 0-8.341 4.17 4.17 0 0 0 0 8.341M155.904 75.867a4.173 4.173 0 0 0-4.171 4.17 4.173 4.173 0 0 0 4.171 4.172 4.173 4.173 0 0 0 4.171-4.171 4.173 4.173 0 0 0-4.171-4.171M231.771 75.867a4.173 4.173 0 0 0-4.171 4.17 4.173 4.173 0 0 0 4.171 4.172 4.173 4.173 0 0 0 4.171-4.171 4.173 4.173 0 0 0-4.171-4.171M155.904 151.733a4.173 4.173 0 0 0-4.171 4.171 4.173 4.173 0 0 0 4.171 4.171 4.173 4.173 0 0 0 4.171-4.171 4.173 4.173 0 0 0-4.171-4.171M231.771 151.733a4.173 4.173 0 0 0-4.171 4.171 4.173 4.173 0 0 0 4.171 4.171 4.173 4.173 0 0 0 4.171-4.171 4.173 4.173 0 0 0-4.171-4.171M307.637 0a4.173 4.173 0 0 0-4.171 4.171 4.173 4.173 0 0 0 4.171 4.171 4.173 4.173 0 0 0 4.172-4.17A4.173 4.173 0 0 0 307.637 0M307.637 75.867a4.173 4.173 0 0 0-4.171 4.17 4.173 4.173 0 0 0 4.171 4.172 4.173 4.173 0 0 0 4.172-4.171 4.173 4.173 0 0 0-4.172-4.171M307.637 151.733a4.173 4.173 0 0 0-4.171 4.171 4.173 4.173 0 0 0 4.171 4.171 4.173 4.173 0 0 0 4.172-4.171 4.173 4.173 0 0 0-4.172-4.171M383.504 8.342a4.17 4.17 0 1 0 0-8.341 4.17 4.17 0 0 0 0 8.341M459.363 8.342a4.171 4.171 0 1 0 0-8.343 4.171 4.171 0 0 0 0 8.343M383.504 75.867a4.173 4.173 0 0 0-4.171 4.17 4.173 4.173 0 0 0 4.171 4.172 4.173 4.173 0 0 0 4.171-4.171 4.173 4.173 0 0 0-4.171-4.171M459.363 75.867a4.173 4.173 0 0 0-4.172 4.17 4.173 4.173 0 0 0 4.172 4.172 4.173 4.173 0 0 0 4.171-4.171 4.173 4.173 0 0 0-4.171-4.171M383.504 151.733a4.173 4.173 0 0 0-4.171 4.171 4.173 4.173 0 0 0 4.171 4.171 4.173 4.173 0 0 0 4.171-4.171 4.173 4.173 0 0 0-4.171-4.171M459.363 151.733a4.173 4.173 0 0 0-4.172 4.171 4.173 4.173 0 0 0 4.172 4.171 4.173 4.173 0 0 0 4.171-4.171 4.173 4.173 0 0 0-4.171-4.171M535.229 8.342a4.17 4.17 0 1 0 0-8.341 4.17 4.17 0 0 0 0 8.341M535.229 75.867a4.173 4.173 0 0 0-4.171 4.17 4.173 4.173 0 0 0 4.171 4.172 4.173 4.173 0 0 0 4.171-4.171 4.173 4.173 0 0 0-4.171-4.171M535.229 151.733a4.173 4.173 0 0 0-4.171 4.171 4.173 4.173 0 0 0 4.171 4.171 4.173 4.173 0 0 0 4.171-4.171 4.173 4.173 0 0 0-4.171-4.171M611.096 8.342a4.171 4.171 0 1 0 0-8.343 4.171 4.171 0 0 0 0 8.343M686.962 8.342a4.17 4.17 0 1 0 0-8.341 4.17 4.17 0 0 0 0 8.341M611.096 75.867a4.173 4.173 0 0 0-4.171 4.17 4.173 4.173 0 0 0 4.171 4.172 4.173 4.173 0 0 0 4.171-4.171 4.173 4.173 0 0 0-4.171-4.171M686.962 75.867a4.173 4.173 0 0 0-4.171 4.17 4.173 4.173 0 0 0 4.171 4.172 4.173 4.173 0 0 0 4.171-4.171 4.173 4.173 0 0 0-4.171-4.171M611.096 151.733a4.173 4.173 0 0 0-4.171 4.171 4.173 4.173 0 0 0 4.171 4.171 4.173 4.173 0 0 0 4.171-4.171 4.173 4.173 0 0 0-4.171-4.171M686.962 151.733a4.173 4.173 0 0 0-4.171 4.171 4.173 4.173 0 0 0 4.171 4.171 4.173 4.173 0 0 0 4.171-4.171 4.173 4.173 0 0 0-4.171-4.171M762.829 8.342a4.17 4.17 0 1 0 0-8.341 4.17 4.17 0 0 0 0 8.341M762.829 75.867a4.173 4.173 0 0 0-4.171 4.17 4.173 4.173 0 0 0 4.171 4.172A4.173 4.173 0 0 0 767 80.038a4.173 4.173 0 0 0-4.171-4.171M762.829 151.733a4.173 4.173 0 0 0-4.171 4.171 4.173 4.173 0 0 0 4.171 4.171 4.173 4.173 0 0 0 4.171-4.171 4.173 4.173 0 0 0-4.171-4.171M4.171 227.6A4.173 4.173 0 0 0 0 231.771a4.173 4.173 0 0 0 4.171 4.171 4.173 4.173 0 0 0 4.171-4.171 4.173 4.173 0 0 0-4.17-4.171M4.171 303.466A4.173 4.173 0 0 0 0 307.637a4.173 4.173 0 0 0 4.171 4.172 4.173 4.173 0 0 0 4.171-4.172 4.173 4.173 0 0 0-4.17-4.171M4.171 379.333A4.173 4.173 0 0 0 0 383.504a4.173 4.173 0 0 0 4.171 4.171 4.173 4.173 0 0 0 4.171-4.171 4.173 4.173 0 0 0-4.17-4.171M80.038 227.6a4.173 4.173 0 0 0-4.171 4.171 4.173 4.173 0 0 0 4.17 4.171 4.173 4.173 0 0 0 4.172-4.171 4.173 4.173 0 0 0-4.171-4.171M80.038 303.466a4.173 4.173 0 0 0-4.171 4.171 4.173 4.173 0 0 0 4.17 4.172 4.173 4.173 0 0 0 4.172-4.172 4.173 4.173 0 0 0-4.171-4.171M80.038 379.333a4.173 4.173 0 0 0-4.171 4.171 4.173 4.173 0 0 0 4.17 4.171 4.173 4.173 0 0 0 4.172-4.171 4.173 4.173 0 0 0-4.171-4.171M155.904 227.6a4.173 4.173 0 0 0-4.171 4.171 4.173 4.173 0 0 0 4.171 4.171 4.173 4.173 0 0 0 4.171-4.171 4.173 4.173 0 0 0-4.171-4.171M231.771 227.6a4.173 4.173 0 0 0-4.171 4.171 4.173 4.173 0 0 0 4.171 4.171 4.173 4.173 0 0 0 4.171-4.171 4.173 4.173 0 0 0-4.171-4.171M155.904 303.466a4.173 4.173 0 0 0-4.171 4.171 4.173 4.173 0 0 0 4.171 4.172 4.173 4.173 0 0 0 4.171-4.172 4.173 4.173 0 0 0-4.171-4.171M231.771 303.466a4.173 4.173 0 0 0-4.171 4.171 4.173 4.173 0 0 0 4.171 4.172 4.173 4.173 0 0 0 4.171-4.172 4.173 4.173 0 0 0-4.171-4.171M155.904 379.333a4.173 4.173 0 0 0-4.171 4.171 4.173 4.173 0 0 0 4.171 4.171 4.173 4.173 0 0 0 4.171-4.171 4.173 4.173 0 0 0-4.171-4.171M231.771 379.333a4.173 4.173 0 0 0-4.171 4.171 4.173 4.173 0 0 0 4.171 4.171 4.173 4.173 0 0 0 4.171-4.171 4.173 4.173 0 0 0-4.171-4.171M307.637 227.6a4.173 4.173 0 0 0-4.171 4.171 4.173 4.173 0 0 0 4.171 4.171 4.173 4.173 0 0 0 4.172-4.171 4.173 4.173 0 0 0-4.172-4.171M307.637 303.466a4.173 4.173 0 0 0-4.171 4.171 4.173 4.173 0 0 0 4.171 4.172 4.173 4.173 0 0 0 4.172-4.172 4.173 4.173 0 0 0-4.172-4.171M307.637 379.333a4.173 4.173 0 0 0-4.171 4.171 4.173 4.173 0 0 0 4.171 4.171 4.173 4.173 0 0 0 4.172-4.171 4.173 4.173 0 0 0-4.172-4.171M383.504 227.6a4.173 4.173 0 0 0-4.171 4.171 4.173 4.173 0 0 0 4.171 4.171 4.173 4.173 0 0 0 4.171-4.171 4.173 4.173 0 0 0-4.171-4.171M459.363 227.6a4.173 4.173 0 0 0-4.172 4.171 4.173 4.173 0 0 0 4.172 4.171 4.173 4.173 0 0 0 4.171-4.171 4.173 4.173 0 0 0-4.171-4.171M383.504 303.466a4.173 4.173 0 0 0-4.171 4.171 4.173 4.173 0 0 0 4.171 4.172 4.173 4.173 0 0 0 4.171-4.172 4.173 4.173 0 0 0-4.171-4.171M459.363 303.466a4.173 4.173 0 0 0-4.172 4.171 4.173 4.173 0 0 0 4.172 4.172 4.173 4.173 0 0 0 4.171-4.172 4.173 4.173 0 0 0-4.171-4.171M383.504 379.333a4.173 4.173 0 0 0-4.171 4.171 4.173 4.173 0 0 0 4.171 4.171 4.173 4.173 0 0 0 4.171-4.171 4.173 4.173 0 0 0-4.171-4.171M459.363 379.333a4.173 4.173 0 0 0-4.172 4.171 4.173 4.173 0 0 0 4.172 4.171 4.173 4.173 0 0 0 4.171-4.171 4.173 4.173 0 0 0-4.171-4.171M535.229 227.6a4.173 4.173 0 0 0-4.171 4.171 4.173 4.173 0 0 0 4.171 4.171 4.173 4.173 0 0 0 4.171-4.171 4.173 4.173 0 0 0-4.171-4.171M535.229 303.466a4.173 4.173 0 0 0-4.171 4.171 4.173 4.173 0 0 0 4.171 4.172 4.173 4.173 0 0 0 4.171-4.172 4.173 4.173 0 0 0-4.171-4.171M535.229 379.333a4.173 4.173 0 0 0-4.171 4.171 4.173 4.173 0 0 0 4.171 4.171 4.173 4.173 0 0 0 4.171-4.171 4.173 4.173 0 0 0-4.171-4.171M611.096 227.6a4.173 4.173 0 0 0-4.171 4.171 4.173 4.173 0 0 0 4.171 4.171 4.173 4.173 0 0 0 4.171-4.171 4.173 4.173 0 0 0-4.171-4.171M686.962 227.6a4.173 4.173 0 0 0-4.171 4.171 4.173 4.173 0 0 0 4.171 4.171 4.173 4.173 0 0 0 4.171-4.171 4.173 4.173 0 0 0-4.171-4.171M611.096 303.466a4.173 4.173 0 0 0-4.171 4.171 4.173 4.173 0 0 0 4.171 4.172 4.173 4.173 0 0 0 4.171-4.172 4.173 4.173 0 0 0-4.171-4.171M686.962 303.466a4.173 4.173 0 0 0-4.171 4.171 4.173 4.173 0 0 0 4.171 4.172 4.173 4.173 0 0 0 4.171-4.172 4.173 4.173 0 0 0-4.171-4.171M611.096 379.333a4.173 4.173 0 0 0-4.171 4.171 4.173 4.173 0 0 0 4.171 4.171 4.173 4.173 0 0 0 4.171-4.171 4.173 4.173 0 0 0-4.171-4.171M686.962 379.333a4.173 4.173 0 0 0-4.171 4.171 4.173 4.173 0 0 0 4.171 4.171 4.173 4.173 0 0 0 4.171-4.171 4.173 4.173 0 0 0-4.171-4.171M762.829 227.6a4.173 4.173 0 0 0-4.171 4.171 4.173 4.173 0 0 0 4.171 4.171 4.173 4.173 0 0 0 4.171-4.171 4.173 4.173 0 0 0-4.171-4.171M762.829 303.466a4.173 4.173 0 0 0-4.171 4.171 4.173 4.173 0 0 0 4.171 4.172 4.173 4.173 0 0 0 4.171-4.172 4.173 4.173 0 0 0-4.171-4.171M762.829 379.333a4.173 4.173 0 0 0-4.171 4.171 4.173 4.173 0 0 0 4.171 4.171 4.173 4.173 0 0 0 4.171-4.171 4.173 4.173 0 0 0-4.171-4.171M4.171 455.191A4.173 4.173 0 0 0 0 459.363a4.173 4.173 0 0 0 4.171 4.171 4.173 4.173 0 0 0 4.171-4.171 4.173 4.173 0 0 0-4.17-4.172M4.171 531.058A4.173 4.173 0 0 0 0 535.229a4.173 4.173 0 0 0 4.171 4.171 4.173 4.173 0 0 0 4.171-4.171 4.173 4.173 0 0 0-4.17-4.171M4.171 606.925A4.173 4.173 0 0 0 0 611.096a4.173 4.173 0 0 0 4.171 4.171 4.173 4.173 0 0 0 4.171-4.171 4.173 4.173 0 0 0-4.17-4.171M80.038 455.191a4.173 4.173 0 0 0-4.171 4.172 4.173 4.173 0 0 0 4.17 4.171 4.173 4.173 0 0 0 4.172-4.171 4.173 4.173 0 0 0-4.171-4.172M80.038 531.058a4.173 4.173 0 0 0-4.171 4.171 4.173 4.173 0 0 0 4.17 4.171 4.173 4.173 0 0 0 4.172-4.171 4.173 4.173 0 0 0-4.171-4.171M80.038 606.925a4.173 4.173 0 0 0-4.171 4.171 4.173 4.173 0 0 0 4.17 4.171 4.173 4.173 0 0 0 4.172-4.171 4.173 4.173 0 0 0-4.171-4.171M155.904 455.191a4.173 4.173 0 0 0-4.171 4.172 4.173 4.173 0 0 0 4.171 4.171 4.173 4.173 0 0 0 4.171-4.171 4.173 4.173 0 0 0-4.171-4.172M231.771 455.191a4.173 4.173 0 0 0-4.171 4.172 4.173 4.173 0 0 0 4.171 4.171 4.173 4.173 0 0 0 4.171-4.171 4.173 4.173 0 0 0-4.171-4.172M155.904 531.058a4.173 4.173 0 0 0-4.171 4.171 4.173 4.173 0 0 0 4.171 4.171 4.173 4.173 0 0 0 4.171-4.171 4.173 4.173 0 0 0-4.171-4.171M231.771 531.058a4.173 4.173 0 0 0-4.171 4.171 4.173 4.173 0 0 0 4.171 4.171 4.173 4.173 0 0 0 4.171-4.171 4.173 4.173 0 0 0-4.171-4.171M155.904 606.925a4.173 4.173 0 0 0-4.171 4.171 4.173 4.173 0 0 0 4.171 4.171 4.173 4.173 0 0 0 4.171-4.171 4.173 4.173 0 0 0-4.171-4.171M231.771 606.925a4.173 4.173 0 0 0-4.171 4.171 4.173 4.173 0 0 0 4.171 4.171 4.173 4.173 0 0 0 4.171-4.171 4.173 4.173 0 0 0-4.171-4.171M307.637 455.191a4.173 4.173 0 0 0-4.171 4.172 4.173 4.173 0 0 0 4.171 4.171 4.173 4.173 0 0 0 4.172-4.171 4.173 4.173 0 0 0-4.172-4.172M307.637 531.058a4.173 4.173 0 0 0-4.171 4.171 4.173 4.173 0 0 0 4.171 4.171 4.173 4.173 0 0 0 4.172-4.171 4.173 4.173 0 0 0-4.172-4.171M307.637 606.925a4.173 4.173 0 0 0-4.171 4.171 4.173 4.173 0 0 0 4.171 4.171 4.173 4.173 0 0 0 4.172-4.171 4.173 4.173 0 0 0-4.172-4.171M383.504 455.191a4.173 4.173 0 0 0-4.171 4.172 4.173 4.173 0 0 0 4.171 4.171 4.173 4.173 0 0 0 4.171-4.171 4.173 4.173 0 0 0-4.171-4.172M459.363 455.191a4.173 4.173 0 0 0-4.172 4.172 4.173 4.173 0 0 0 4.172 4.171 4.173 4.173 0 0 0 4.171-4.171 4.173 4.173 0 0 0-4.171-4.172M383.504 531.058a4.173 4.173 0 0 0-4.171 4.171 4.173 4.173 0 0 0 4.171 4.171 4.173 4.173 0 0 0 4.171-4.171 4.173 4.173 0 0 0-4.171-4.171M459.363 531.058a4.173 4.173 0 0 0-4.172 4.171 4.173 4.173 0 0 0 4.172 4.171 4.173 4.173 0 0 0 4.171-4.171 4.173 4.173 0 0 0-4.171-4.171M383.504 606.925a4.173 4.173 0 0 0-4.171 4.171 4.173 4.173 0 0 0 4.171 4.171 4.173 4.173 0 0 0 4.171-4.171 4.173 4.173 0 0 0-4.171-4.171M459.363 606.925a4.173 4.173 0 0 0-4.172 4.171 4.173 4.173 0 0 0 4.172 4.171 4.173 4.173 0 0 0 4.171-4.171 4.173 4.173 0 0 0-4.171-4.171M535.229 455.191a4.173 4.173 0 0 0-4.171 4.172 4.173 4.173 0 0 0 4.171 4.171 4.173 4.173 0 0 0 4.171-4.171 4.173 4.173 0 0 0-4.171-4.172M535.229 531.058a4.173 4.173 0 0 0-4.171 4.171 4.173 4.173 0 0 0 4.171 4.171 4.173 4.173 0 0 0 4.171-4.171 4.173 4.173 0 0 0-4.171-4.171M535.229 606.925a4.173 4.173 0 0 0-4.171 4.171 4.173 4.173 0 0 0 4.171 4.171 4.173 4.173 0 0 0 4.171-4.171 4.173 4.173 0 0 0-4.171-4.171M611.096 455.191a4.173 4.173 0 0 0-4.171 4.172 4.173 4.173 0 0 0 4.171 4.171 4.173 4.173 0 0 0 4.171-4.171 4.173 4.173 0 0 0-4.171-4.172M686.962 455.191a4.173 4.173 0 0 0-4.171 4.172 4.173 4.173 0 0 0 4.171 4.171 4.173 4.173 0 0 0 4.171-4.171 4.173 4.173 0 0 0-4.171-4.172M611.096 531.058a4.173 4.173 0 0 0-4.171 4.171 4.173 4.173 0 0 0 4.171 4.171 4.173 4.173 0 0 0 4.171-4.171 4.173 4.173 0 0 0-4.171-4.171M686.962 531.058a4.173 4.173 0 0 0-4.171 4.171 4.173 4.173 0 0 0 4.171 4.171 4.173 4.173 0 0 0 4.171-4.171 4.173 4.173 0 0 0-4.171-4.171M611.096 606.925a4.173 4.173 0 0 0-4.171 4.171 4.173 4.173 0 0 0 4.171 4.171 4.173 4.173 0 0 0 4.171-4.171 4.173 4.173 0 0 0-4.171-4.171M686.962 606.925a4.173 4.173 0 0 0-4.171 4.171 4.173 4.173 0 0 0 4.171 4.171 4.173 4.173 0 0 0 4.171-4.171 4.173 4.173 0 0 0-4.171-4.171M762.829 455.191a4.173 4.173 0 0 0-4.171 4.172 4.173 4.173 0 0 0 4.171 4.171 4.173 4.173 0 0 0 4.171-4.171 4.173 4.173 0 0 0-4.171-4.172M762.829 531.058a4.173 4.173 0 0 0-4.171 4.171 4.173 4.173 0 0 0 4.171 4.171 4.173 4.173 0 0 0 4.171-4.171 4.173 4.173 0 0 0-4.171-4.171M762.829 606.925a4.173 4.173 0 0 0-4.171 4.171 4.173 4.173 0 0 0 4.171 4.171 4.173 4.173 0 0 0 4.171-4.171 4.173 4.173 0 0 0-4.171-4.171M4.171 682.791A4.173 4.173 0 0 0 0 686.962a4.173 4.173 0 0 0 4.171 4.171 4.173 4.173 0 0 0 4.171-4.171 4.173 4.173 0 0 0-4.17-4.171M4.171 758.658A4.173 4.173 0 0 0 0 762.829 4.173 4.173 0 0 0 4.171 767a4.173 4.173 0 0 0 4.171-4.171 4.173 4.173 0 0 0-4.17-4.171M80.038 691.133a4.17 4.17 0 1 0 0-8.342 4.17 4.17 0 0 0 0 8.342M80.038 758.658a4.173 4.173 0 0 0-4.171 4.171 4.173 4.173 0 0 0 4.17 4.171 4.173 4.173 0 0 0 4.172-4.171 4.173 4.173 0 0 0-4.171-4.171M155.904 691.133a4.17 4.17 0 1 0 .001-8.34 4.17 4.17 0 0 0-.001 8.34M231.771 691.133a4.17 4.17 0 1 0 .001-8.34 4.17 4.17 0 0 0-.001 8.34M155.904 758.658a4.173 4.173 0 0 0-4.171 4.171 4.173 4.173 0 0 0 4.171 4.171 4.173 4.173 0 0 0 4.171-4.171 4.173 4.173 0 0 0-4.171-4.171M231.771 758.658a4.173 4.173 0 0 0-4.171 4.171 4.173 4.173 0 0 0 4.171 4.171 4.173 4.173 0 0 0 4.171-4.171 4.173 4.173 0 0 0-4.171-4.171M307.637 682.791a4.173 4.173 0 0 0-4.171 4.171 4.173 4.173 0 0 0 4.171 4.171 4.173 4.173 0 0 0 4.172-4.171 4.173 4.173 0 0 0-4.172-4.171M307.637 758.658a4.173 4.173 0 0 0-4.171 4.171 4.173 4.173 0 0 0 4.171 4.171 4.173 4.173 0 0 0 4.172-4.171 4.173 4.173 0 0 0-4.172-4.171M383.504 691.133a4.17 4.17 0 1 0 .001-8.34 4.17 4.17 0 0 0-.001 8.34M459.363 691.133a4.171 4.171 0 1 0 0-8.342 4.171 4.171 0 0 0 0 8.342M383.504 758.658a4.173 4.173 0 0 0-4.171 4.171 4.173 4.173 0 0 0 4.171 4.171 4.173 4.173 0 0 0 4.171-4.171 4.173 4.173 0 0 0-4.171-4.171M459.363 758.658a4.173 4.173 0 0 0-4.172 4.171 4.173 4.173 0 0 0 4.172 4.171 4.173 4.173 0 0 0 4.171-4.171 4.173 4.173 0 0 0-4.171-4.171M535.229 691.133a4.17 4.17 0 1 0 .001-8.34 4.17 4.17 0 0 0-.001 8.34M535.229 758.658a4.173 4.173 0 0 0-4.171 4.171 4.173 4.173 0 0 0 4.171 4.171 4.173 4.173 0 0 0 4.171-4.171 4.173 4.173 0 0 0-4.171-4.171M611.096 691.133a4.171 4.171 0 1 0 0-8.342 4.171 4.171 0 0 0 0 8.342M686.962 691.133a4.17 4.17 0 1 0 .001-8.34 4.17 4.17 0 0 0-.001 8.34M611.096 758.658a4.173 4.173 0 0 0-4.171 4.171 4.173 4.173 0 0 0 4.171 4.171 4.173 4.173 0 0 0 4.171-4.171 4.173 4.173 0 0 0-4.171-4.171M686.962 758.658a4.173 4.173 0 0 0-4.171 4.171 4.173 4.173 0 0 0 4.171 4.171 4.173 4.173 0 0 0 4.171-4.171 4.173 4.173 0 0 0-4.171-4.171M762.829 691.133a4.17 4.17 0 1 0 .001-8.34 4.17 4.17 0 0 0-.001 8.34M762.829 758.658a4.173 4.173 0 0 0-4.171 4.171 4.173 4.173 0 0 0 4.171 4.171 4.173 4.173 0 0 0 4.171-4.171 4.173 4.173 0 0 0-4.171-4.171"/></g></svg>