<svg xmlns="http://www.w3.org/2000/svg" width="169" height="1146" fill="none"><g fill="#fff" filter="url(#a)"><g opacity=".3"><path d="M8.171 378.809A4.173 4.173 0 0 0 4 382.98a4.173 4.173 0 0 0 4.171 4.171 4.173 4.173 0 0 0 4.171-4.171 4.173 4.173 0 0 0-4.17-4.171M8.171 454.675A4.173 4.173 0 0 0 4 458.846a4.173 4.173 0 0 0 4.171 4.171 4.173 4.173 0 0 0 4.171-4.171 4.173 4.173 0 0 0-4.17-4.171M8.171 530.542A4.173 4.173 0 0 0 4 534.713a4.173 4.173 0 0 0 4.171 4.171 4.173 4.173 0 0 0 4.171-4.171 4.173 4.173 0 0 0-4.17-4.171M84.038 387.151a4.171 4.171 0 1 0 0-8.343 4.171 4.171 0 0 0 0 8.343M84.038 454.675a4.173 4.173 0 0 0-4.171 4.171 4.173 4.173 0 0 0 4.17 4.171 4.173 4.173 0 0 0 4.172-4.171 4.173 4.173 0 0 0-4.171-4.171M84.038 530.542a4.173 4.173 0 0 0-4.171 4.171 4.173 4.173 0 0 0 4.17 4.171 4.173 4.173 0 0 0 4.172-4.171 4.173 4.173 0 0 0-4.171-4.171M159.904 387.151a4.171 4.171 0 1 0 0-8.342 4.171 4.171 0 0 0 0 8.342M159.904 454.675a4.173 4.173 0 0 0-4.171 4.171 4.173 4.173 0 0 0 4.171 4.171 4.173 4.173 0 0 0 4.171-4.171 4.173 4.173 0 0 0-4.171-4.171M159.904 530.542a4.173 4.173 0 0 0-4.171 4.171 4.173 4.173 0 0 0 4.171 4.171 4.173 4.173 0 0 0 4.171-4.171 4.173 4.173 0 0 0-4.171-4.171M8.171 606.408A4.173 4.173 0 0 0 4 610.579a4.173 4.173 0 0 0 4.171 4.172 4.173 4.173 0 0 0 4.171-4.172 4.173 4.173 0 0 0-4.17-4.171M8.171 682.275A4.173 4.173 0 0 0 4 686.446a4.173 4.173 0 0 0 4.171 4.171 4.173 4.173 0 0 0 4.171-4.171 4.173 4.173 0 0 0-4.17-4.171M8.171 758.141A4.173 4.173 0 0 0 4 762.313a4.173 4.173 0 0 0 4.171 4.171 4.173 4.173 0 0 0 4.171-4.171 4.173 4.173 0 0 0-4.17-4.172M84.038 606.408a4.173 4.173 0 0 0-4.171 4.171 4.173 4.173 0 0 0 4.17 4.172 4.173 4.173 0 0 0 4.172-4.172 4.173 4.173 0 0 0-4.171-4.171M84.038 682.275a4.173 4.173 0 0 0-4.171 4.171 4.173 4.173 0 0 0 4.17 4.171 4.173 4.173 0 0 0 4.172-4.171 4.173 4.173 0 0 0-4.171-4.171M84.038 758.141a4.173 4.173 0 0 0-4.171 4.172 4.173 4.173 0 0 0 4.17 4.171 4.173 4.173 0 0 0 4.172-4.171 4.173 4.173 0 0 0-4.171-4.172M159.904 606.408a4.173 4.173 0 0 0-4.171 4.171 4.173 4.173 0 0 0 4.171 4.172 4.173 4.173 0 0 0 4.171-4.172 4.173 4.173 0 0 0-4.171-4.171M159.904 682.275a4.173 4.173 0 0 0-4.171 4.171 4.173 4.173 0 0 0 4.171 4.171 4.173 4.173 0 0 0 4.171-4.171 4.173 4.173 0 0 0-4.171-4.171M159.904 758.141a4.173 4.173 0 0 0-4.171 4.172 4.173 4.173 0 0 0 4.171 4.171 4.173 4.173 0 0 0 4.171-4.171 4.173 4.173 0 0 0-4.171-4.172M8.171 834A4.173 4.173 0 0 0 4 838.171a4.173 4.173 0 0 0 4.171 4.171 4.173 4.173 0 0 0 4.171-4.171A4.173 4.173 0 0 0 8.172 834M8.171 909.867A4.173 4.173 0 0 0 4 914.038a4.173 4.173 0 0 0 4.171 4.171 4.173 4.173 0 0 0 4.171-4.171 4.173 4.173 0 0 0-4.17-4.171M8.171 985.733A4.173 4.173 0 0 0 4 989.904a4.173 4.173 0 0 0 4.171 4.171 4.173 4.173 0 0 0 4.171-4.171 4.173 4.173 0 0 0-4.17-4.171M84.038 834a4.173 4.173 0 0 0-4.171 4.171 4.173 4.173 0 0 0 4.17 4.171 4.173 4.173 0 0 0 4.172-4.171A4.173 4.173 0 0 0 84.038 834M84.038 909.867a4.173 4.173 0 0 0-4.171 4.171 4.173 4.173 0 0 0 4.17 4.171 4.173 4.173 0 0 0 4.172-4.171 4.173 4.173 0 0 0-4.171-4.171M84.038 985.733a4.173 4.173 0 0 0-4.171 4.171 4.173 4.173 0 0 0 4.17 4.171 4.173 4.173 0 0 0 4.172-4.171 4.173 4.173 0 0 0-4.171-4.171M159.904 834a4.173 4.173 0 0 0-4.171 4.171 4.173 4.173 0 0 0 4.171 4.171 4.173 4.173 0 0 0 4.171-4.171 4.173 4.173 0 0 0-4.171-4.171M159.904 909.867a4.173 4.173 0 0 0-4.171 4.171 4.173 4.173 0 0 0 4.171 4.171 4.173 4.173 0 0 0 4.171-4.171 4.173 4.173 0 0 0-4.171-4.171M159.904 985.733a4.173 4.173 0 0 0-4.171 4.171 4.173 4.173 0 0 0 4.171 4.171 4.173 4.173 0 0 0 4.171-4.171 4.173 4.173 0 0 0-4.171-4.171M8.171 1061.6A4.173 4.173 0 0 0 4 1065.77c0 2.3 1.869 4.17 4.171 4.17a4.173 4.173 0 0 0 4.171-4.17c0-2.3-1.869-4.17-4.17-4.17M8.171 1137.47A4.173 4.173 0 0 0 4 1141.64c0 2.3 1.869 4.17 4.171 4.17a4.173 4.173 0 0 0 4.171-4.17c0-2.3-1.869-4.17-4.17-4.17M84.038 1069.94a4.173 4.173 0 0 0 4.17-4.17c0-2.3-1.867-4.17-4.17-4.17a4.173 4.173 0 0 0-4.171 4.17c0 2.3 1.867 4.17 4.17 4.17M84.038 1137.47a4.173 4.173 0 0 0-4.171 4.17c0 2.3 1.869 4.17 4.17 4.17a4.173 4.173 0 0 0 4.172-4.17c0-2.3-1.87-4.17-4.171-4.17M159.904 1069.94a4.17 4.17 0 0 0 4.171-4.17 4.172 4.172 0 0 0-8.342 0c0 2.3 1.868 4.17 4.171 4.17M159.904 1137.47a4.173 4.173 0 0 0-4.171 4.17c0 2.3 1.869 4.17 4.171 4.17a4.173 4.173 0 0 0 4.171-4.17c0-2.3-1.869-4.17-4.171-4.17"/></g><g opacity=".3"><path d="M8.171 0A4.173 4.173 0 0 0 4 4.171a4.173 4.173 0 0 0 4.171 4.171 4.173 4.173 0 0 0 4.171-4.17A4.173 4.173 0 0 0 8.172 0M8.171 75.867A4.173 4.173 0 0 0 4 80.037a4.173 4.173 0 0 0 4.171 4.172 4.173 4.173 0 0 0 4.171-4.171 4.173 4.173 0 0 0-4.17-4.171M8.171 151.733A4.173 4.173 0 0 0 4 155.904a4.173 4.173 0 0 0 4.171 4.171 4.173 4.173 0 0 0 4.171-4.171 4.173 4.173 0 0 0-4.17-4.171M84.038 0a4.173 4.173 0 0 0-4.171 4.171 4.173 4.173 0 0 0 4.17 4.171 4.173 4.173 0 0 0 4.172-4.17A4.173 4.173 0 0 0 84.038 0M84.038 75.867a4.173 4.173 0 0 0-4.171 4.17 4.173 4.173 0 0 0 4.17 4.172 4.173 4.173 0 0 0 4.172-4.171 4.173 4.173 0 0 0-4.171-4.171M84.038 151.733a4.173 4.173 0 0 0-4.171 4.171 4.173 4.173 0 0 0 4.17 4.171 4.173 4.173 0 0 0 4.172-4.171 4.173 4.173 0 0 0-4.171-4.171M159.904 0a4.173 4.173 0 0 0-4.171 4.171 4.173 4.173 0 0 0 4.171 4.171 4.173 4.173 0 0 0 4.171-4.17A4.173 4.173 0 0 0 159.904 0M159.904 75.867a4.173 4.173 0 0 0-4.171 4.17 4.173 4.173 0 0 0 4.171 4.172 4.173 4.173 0 0 0 4.171-4.171 4.173 4.173 0 0 0-4.171-4.171M159.904 151.733a4.173 4.173 0 0 0-4.171 4.171 4.173 4.173 0 0 0 4.171 4.171 4.173 4.173 0 0 0 4.171-4.171 4.173 4.173 0 0 0-4.171-4.171M8.171 227.6A4.173 4.173 0 0 0 4 231.771a4.173 4.173 0 0 0 4.171 4.171 4.173 4.173 0 0 0 4.171-4.171 4.173 4.173 0 0 0-4.17-4.171M8.171 303.466A4.173 4.173 0 0 0 4 307.637a4.173 4.173 0 0 0 4.171 4.172 4.173 4.173 0 0 0 4.171-4.172 4.173 4.173 0 0 0-4.17-4.171M84.038 235.942l4.17-4.171s-1.867-4.171-4.17-4.171a4.17 4.17 0 1 0 0 8.342M84.038 303.466a4.173 4.173 0 0 0-4.171 4.171c0 2.303 4.17 4.172 4.17 4.172l4.172-4.172a4.173 4.173 0 0 0-4.171-4.171M159.904 235.942a4.171 4.171 0 1 0 0-8.342 4.171 4.171 0 0 0 0 8.342M159.904 303.466a4.173 4.173 0 0 0-4.171 4.171 4.173 4.173 0 0 0 4.171 4.172 4.173 4.173 0 0 0 4.171-4.172 4.173 4.173 0 0 0-4.171-4.171"/></g></g><defs><filter id="a" width="168.075" height="1153.81" x="0" y="0" color-interpolation-filters="sRGB" filterUnits="userSpaceOnUse"><feFlood flood-opacity="0" result="BackgroundImageFix"/><feColorMatrix in="SourceAlpha" result="hardAlpha" values="0 0 0 0 0 0 0 0 0 0 0 0 0 0 0 0 0 0 127 0"/><feOffset dy="4"/><feGaussianBlur stdDeviation="2"/><feComposite in2="hardAlpha" operator="out"/><feColorMatrix values="0 0 0 0 0 0 0 0 0 0 0 0 0 0 0 0 0 0 0.25 0"/><feBlend in2="BackgroundImageFix" result="effect1_dropShadow_241_2"/><feBlend in="SourceGraphic" in2="effect1_dropShadow_241_2" result="shape"/></filter></defs></svg>