<svg xmlns="http://www.w3.org/2000/svg" width="38" height="33" fill="none"><path fill="#fff" d="M36.744 8.124a1.86 1.86 0 0 0-1.524-.79H9.886l-2.14-5.079A3.7 3.7 0 0 0 4.326 0H0v3.667h4.325l8.793 20.872a1.85 1.85 0 0 0 1.711 1.128h14.83c.773 0 1.464-.475 1.737-1.188l5.56-14.667a1.82 1.82 0 0 0-.212-1.688M28.374 22H16.066l-4.634-11h21.113zM15.756 33c1.536 0 2.78-1.231 2.78-2.75s-1.244-2.75-2.78-2.75-2.78 1.231-2.78 2.75S14.22 33 15.756 33M28.732 33c1.535 0 2.78-1.231 2.78-2.75s-1.245-2.75-2.78-2.75c-1.536 0-2.78 1.231-2.78 2.75S27.195 33 28.731 33"/></svg>