<svg xmlns="http://www.w3.org/2000/svg" width="20" height="20" fill="none"><path fill="#fff" d="M11.913 10.014a1.82 1.82 0 1 1-3.642 0 1.82 1.82 0 0 1 3.642 0"/><path fill="#fff" d="M13.146 4.552H7.04a2.413 2.413 0 0 0-2.41 2.41v6.105a2.413 2.413 0 0 0 2.41 2.41h6.105a2.413 2.413 0 0 0 2.41-2.41V6.962a2.413 2.413 0 0 0-2.41-2.41m-3.053 8.475a3.016 3.016 0 0 1-3.012-3.013 3.016 3.016 0 0 1 3.012-3.012 3.016 3.016 0 0 1 3.012 3.012 3.016 3.016 0 0 1-3.012 3.013m3.454-5.864a.602.602 0 1 1 0-1.205.602.602 0 0 1 0 1.205"/><path fill="#fff" d="M14.727 0H5.273A5.28 5.28 0 0 0 0 5.273v9.454A5.28 5.28 0 0 0 5.273 20h9.454A5.28 5.28 0 0 0 20 14.727V5.273A5.28 5.28 0 0 0 14.727 0m1.757 12.969a3.52 3.52 0 0 1-3.515 3.515H7.03a3.52 3.52 0 0 1-3.515-3.515V7.03A3.52 3.52 0 0 1 7.03 3.516h5.938a3.52 3.52 0 0 1 3.515 3.515z"/></svg>