<svg xmlns="http://www.w3.org/2000/svg" width="269" height="51" fill="none"><g fill="#F47521" clip-path="url(#a)"><path d="M22.627 0c-.912 0-1.598.479-2.05 1.437L.157 49.515q-.546 1.43.822 1.432h14.204c.996 0 1.682-.479 2.045-1.432l6.336-14.896.015-.042 5.16-12.48h-.037l3.279-7.843h.005L37.88 0zM66.126 5.253q0 2.32-1.297 5.39l-5.877 13.843c-.864 2.043-1.728 3.717-2.593 5.012q-1.296 1.94-2.973 3.068-1.667 1.128-3.926 1.569-2.252.442-5.46.442H25.658l5.16-12.48 3.247-7.843 5.112-12.37A3.05 3.05 0 0 1 41.997 0H58.34c5.186 0 7.785 1.753 7.785 5.253M121.298 0h-14.205q-1.365 0-2.045 1.437L91.05 34.372c-.596 1.458-1.481 2.184-2.667 2.184H76.229q-1.296.001-1.297-.953c0-.273.111-.684.343-1.231L89.274 1.437c.137-.368.205-.637.205-.821Q89.48 0 88.451 0H74.247q-1.367 0-2.045 1.437l-16.46 38.804c-.727 1.726-1.09 3.268-1.09 4.637 0 2.042.758 3.569 2.287 4.569q2.285 1.5 6.182 1.5h26.084c2.409 0 4.448-.163 6.109-.479q2.497-.475 4.337-1.669c1.228-.794 2.309-1.89 3.242-3.274.933-1.39 1.855-3.147 2.767-5.284l16.46-38.804c.137-.368.2-.637.2-.821 0-.41-.337-.616-1.022-.616M153.121 36.556H130.31l14.889-35.119Q145.745 0 144.377 0h-15.158c-.912 0-1.592.479-2.051 1.437L106.75 49.515q-.546 1.43.822 1.432h39.398q1.503-.001 2.05-1.432l4.918-11.527q.543-1.43-.817-1.432M217.512 0h-31.681c-2.551 0-4.702.153-6.457.447-1.749.295-3.267.816-4.538 1.569-1.275.747-2.371 1.784-3.278 3.1q-1.368 1.982-2.735 5.117l-5.187 12.206q-1.027 2.456-1.027 4.295c0 1.774.764 3.085 2.287 3.922 1.529.842 3.927 1.263 7.205 1.263h17.208q1.297 0 1.297.884c0 .369-.09.753-.269 1.163l-.137.269q-.956 2.32-2.804 2.321h-27.243q-1.504.002-2.051 1.432l-4.917 11.527q-.546 1.43.822 1.432h34.691c2.319 0 4.29-.137 5.903-.41q2.427-.411 4.238-1.5a10.5 10.5 0 0 0 3.104-2.901c.864-1.205 1.687-2.716 2.461-4.532l5.392-12.617c.822-1.91 1.228-3.521 1.228-4.843q.001-5.252-8.875-5.253h-17.894q-1.296.002-1.297-.952.001-.413.343-1.227l.137-.274c.59-1.452 1.502-2.184 2.73-2.184h25.267c1.002 0 1.687-.474 2.051-1.432l4.848-11.385c.138-.368.201-.637.201-.821 0-.41-.338-.616-1.023-.616M267.978 0h-39.814q-1.366 0-2.045 1.437l-20.418 48.078c-.364.953-.095 1.432.817 1.432h40.288q1.504-.001 2.051-1.432l4.917-11.527q.546-1.43-.822-1.432H228.37l2.119-4.98h22.057q1.431 0 1.976-1.431l4.032-9.48q.206-.546.206-.816 0-.616-1.028-.616h-22.057l2.119-4.979h24.107c.996 0 1.682-.474 2.045-1.432l4.849-11.385c.137-.368.206-.637.206-.821Q269 0 267.978 0"/></g><defs><clipPath id="a"><path fill="#fff" d="M0 0h269v50.947H0z"/></clipPath></defs></svg>