<svg xmlns="http://www.w3.org/2000/svg" width="198" height="38" fill="none"><g fill="#F47521" clip-path="url(#a)"><path d="M16.655 0q-1.008 0-1.51 1.058L.118 36.446Q-.285 37.5.722 37.5h10.455c.733 0 1.238-.353 1.505-1.054l4.663-10.964.012-.031 3.798-9.186h-.027l2.413-5.773h.004L27.882 0zM48.672 3.867q0 1.708-.954 3.967l-4.326 10.19c-.636 1.503-1.272 2.735-1.909 3.688q-.954 1.429-2.188 2.259-1.226.83-2.89 1.154-1.657.326-4.019.326h-13.5l3.797-9.186 2.39-5.773 3.763-9.105A2.24 2.24 0 0 1 30.912 0h12.03c3.817 0 5.73 1.29 5.73 3.867M89.282 0H78.827q-1.006 0-1.505 1.058L67.018 25.3c-.439 1.073-1.09 1.607-1.963 1.607h-8.946q-.955.001-.955-.7-.002-.303.252-.907L65.71 1.058c.101-.272.152-.47.152-.605q0-.453-.757-.453H54.65q-1.006 0-1.505 1.058L41.029 29.62q-.803 1.904-.803 3.413c0 1.503.559 2.627 1.684 3.363Q43.59 37.5 46.46 37.5h19.2q2.661-.002 4.496-.353 1.838-.35 3.193-1.228 1.356-.879 2.386-2.41 1.029-1.532 2.037-3.89L89.887 1.058c.1-.272.147-.47.147-.605Q90.036 0 89.283 0M112.706 26.908h-16.79l10.959-25.85Q107.277 0 106.27 0H95.113c-.672 0-1.172.353-1.51 1.058L78.575 36.446q-.401 1.053.606 1.054h28.999q1.106-.001 1.509-1.054l3.619-8.485q.4-1.052-.601-1.053M160.102 0h-23.32q-2.815.002-4.752.33c-1.288.216-2.405.6-3.34 1.154-.939.55-1.746 1.313-2.413 2.282q-1.007 1.458-2.014 3.766l-3.817 8.984q-.757 1.808-.757 3.162.001 1.96 1.684 2.886c1.125.62 2.89.93 5.303.93h12.667q.954 0 .954.651 0 .405-.198.856l-.101.198q-.703 1.708-2.064 1.708h-20.052q-1.108.001-1.51 1.054l-3.619 8.485q-.402 1.053.605 1.054h25.535c1.707 0 3.158-.1 4.345-.302q1.786-.303 3.119-1.104a7.7 7.7 0 0 0 2.285-2.135q.955-1.331 1.812-3.336l3.968-9.287q.906-2.107.904-3.564.001-3.866-6.533-3.867h-13.171q-.954.001-.954-.701 0-.304.252-.903l.101-.201q.653-1.607 2.01-1.608h18.598q1.106.002 1.509-1.054l3.569-8.38c.101-.272.147-.47.147-.605 0-.302-.248-.453-.752-.453M197.248 0h-29.306q-1.005 0-1.505 1.058l-15.029 35.388q-.404 1.053.601 1.054h29.655q1.106-.001 1.509-1.054l3.62-8.485q.401-1.052-.606-1.053h-18.093l1.559-3.666h16.236q1.053 0 1.454-1.053l2.968-6.978q.152-.403.152-.6 0-.454-.757-.454H173.47l1.56-3.665h17.745q1.101.002 1.505-1.054l3.569-8.38c.101-.272.151-.47.151-.605Q197.999 0 197.248 0"/></g><defs><clipPath id="a"><path fill="#fff" d="M0 0h198v37.5H0z"/></clipPath></defs></svg>