<svg xmlns="http://www.w3.org/2000/svg" width="29" height="29" fill="none"><path fill="#fff" d="m28.179 24.703-5.563-5.564c-.251-.25-1.687-1.54-2.067-1.92l.209 1.53a11.55 11.55 0 0 0 2.455-7.143C23.213 5.195 18.018 0 11.606 0S0 5.195 0 11.606c0 6.412 5.195 11.607 11.606 11.607a11.55 11.55 0 0 0 7.143-2.456l-1.53-.113c.285.285 1.67 1.72 1.92 1.972l5.564 5.563a1.334 1.334 0 0 0 1.891 0l1.58-1.58a1.345 1.345 0 0 0 .005-1.896m-16.573-5.954a7.14 7.14 0 0 1-7.142-7.143 7.14 7.14 0 0 1 7.142-7.142 7.14 7.14 0 0 1 7.143 7.142 7.14 7.14 0 0 1-7.143 7.143"/></svg>