<svg xmlns="http://www.w3.org/2000/svg" width="20" height="20" fill="none"><path fill="#fff" d="M18.9 1.1Q17.8 0 16.25 0H3.75Q2.2 0 1.1 1.1T0 3.75v12.5q0 1.55 1.1 2.65T3.75 20h12.5q1.55 0 2.65-1.1t1.1-2.65V3.75q0-1.55-1.1-2.65m-3.6 6.595q.012.118.013.352a7.85 7.85 0 0 1-1.296 4.304 8.2 8.2 0 0 1-1.569 1.783q-.91.776-2.187 1.237a8 8 0 0 1-2.735.463 7.67 7.67 0 0 1-4.192-1.224q.312.039.65.039 1.889 0 3.4-1.172A2.6 2.6 0 0 1 5.8 12.93a2.78 2.78 0 0 1-.97-1.354q.339.052.508.052.285 0 .664-.104a2.74 2.74 0 0 1-1.602-.944 2.6 2.6 0 0 1-.65-1.739v-.026q.69.326 1.301.339-1.185-.795-1.185-2.279 0-.729.378-1.38a7.75 7.75 0 0 0 2.5 2.018q1.47.756 3.151.847a2.5 2.5 0 0 1-.065-.625q0-1.133.8-1.934A2.64 2.64 0 0 1 12.566 5q1.199 0 1.993.86a5.4 5.4 0 0 0 1.745-.665 2.66 2.66 0 0 1-1.211 1.524 5.8 5.8 0 0 0 1.575-.443 5.3 5.3 0 0 1-1.367 1.42"/></svg>