<svg xmlns="http://www.w3.org/2000/svg" width="20" height="17" fill="none"><path fill="#141414" d="M19.947 1.92a8.2 8.2 0 0 1-2.35.645A4.1 4.1 0 0 0 19.396.3a8.2 8.2 0 0 1-2.6.992A4.08 4.08 0 0 0 13.81 0C11.17 0 9.227 2.465 9.824 5.025c-3.4-.171-6.416-1.8-8.434-4.275a4.1 4.1 0 0 0 1.266 5.463 4.1 4.1 0 0 1-1.851-.512C.76 7.596 2.119 9.37 4.087 9.766a4.1 4.1 0 0 1-1.848.07 4.1 4.1 0 0 0 3.823 2.84A8.24 8.24 0 0 1 0 14.373a11.57 11.57 0 0 0 6.272 1.839c7.6 0 11.891-6.418 11.632-12.174a8.3 8.3 0 0 0 2.043-2.118"/></svg>